<?xml version="1.0" encoding="utf-8"?>
<!-- Generator: Adobe Illustrator 17.0.0, SVG Export Plug-In . SVG Version: 6.00 Build 0)  -->
<!DOCTYPE svg PUBLIC "-//W3C//DTD SVG 1.1//EN" "http://www.w3.org/Graphics/SVG/1.1/DTD/svg11.dtd">
<svg version="1.1" id="Layer_1" xmlns="http://www.w3.org/2000/svg" xmlns:xlink="http://www.w3.org/1999/xlink" x="0px" y="0px"
	 width="231px" height="24px" viewBox="0 0 231 24" enable-background="new 0 0 231 24" xml:space="preserve">
<title>dc-logo-sl</title>
<desc>Created using Figma</desc>
<path id="path0_fill" fill="#414141" d="M73.198,23.746L67.68,21.12l7.384-15.603l5.518,2.626L73.198,23.746z"/>
<path id="path1_fill" fill="#4F4F4F" d="M146.688,17.153l1.935,1.642c-0.607,0.988-1.418,1.835-2.378,2.483
	c-0.959,0.648-2.046,1.083-3.186,1.276c-2.27,0.538-4.655,0.274-6.753-0.748c-2.098-1.022-3.782-2.739-4.766-4.862
	c-1.01-2.186-1.271-4.647-0.744-6.998c0.527-2.351,1.813-4.462,3.659-6.003c4.032-3.181,9.411-2.857,13.696,0.844
	c0,1.157-0.933,1.723-1.693,2.371c-5.115-2.799-8.202-2.683-10.667,0.393c-1.084,1.387-1.66,3.106-1.63,4.869
	c0.029,1.763,0.662,3.462,1.791,4.812c2.546,2.961,5.552,2.996,10.736-0.069"/>
<path id="path2_fill" fill="#414141" d="M77.512,0l5.76,2.753l-1.912,4.06l-5.76-2.73L77.512,0z"/>
<path id="path3_fill" fill="#4F4F4F" d="M153.828,8.871c7.2-3.227,10.114-1.319,10.137,6.269c0,2.313,0,4.627,0,6.94
	c-1.037,1.157-2.12,0.532-3.456,0.671c0-3.03,0-5.725,0-8.42c0-2.047-0.76-3.667-2.984-3.771c-2.223-0.104-3.456,1.434-3.594,3.655
	c-0.104,2.707,0,5.413,0,7.969c-0.467,0.342-1.016,0.553-1.591,0.612c-0.575,0.059-1.155-0.037-1.681-0.277V2.082
	c0.956-0.659,1.901-0.509,3.179,0L153.828,8.871z"/>
<path id="path4_fill" fill="#4F4F4F" d="M183.012,22.67c0-2.996,0-5.679,0-8.374c0-2.047-0.783-3.655-3.018-3.747
	c-2.235-0.093-3.456,1.469-3.571,3.69c-0.104,2.695,0,5.401,0,7.958c-0.471,0.339-1.024,0.545-1.601,0.598
	c-0.577,0.053-1.158-0.05-1.682-0.297V7.53c2.408-0.185,2.408-0.185,3.559,1.295c6.508-3.25,9.722-1.284,9.768,5.98
	c0,2.452,0,4.916,0,7.24C185.558,23.202,184.51,22.728,183.012,22.67z"/>
<path id="path5_fill" fill="#4F4F4F" d="M206.9,11.428c1.567,2.094,3.87,1.932,5.667,2.822c1.797,0.891,3.133,1.862,2.995,4.048
	c-0.03,0.977-0.387,1.915-1.014,2.662c-0.627,0.747-1.487,1.26-2.441,1.455c-1.427,0.389-2.924,0.449-4.378,0.176
	c-1.454-0.272-2.828-0.87-4.02-1.75c-0.108-0.478-0.036-0.978,0.202-1.406c0.238-0.427,0.626-0.751,1.088-0.907
	c2.396,0.937,4.93,2.66,7.557,0.301c-0.772-2.313-2.742-2.174-4.216-2.672c-2.511-0.833-4.804-1.92-4.251-5.02
	c0.599-3.354,3.341-3.979,6.232-3.852c1.542,0.049,3.04,0.534,4.32,1.4c0.553,1.157-0.138,1.7-0.806,2.313
	c-2.223-0.15-4.527-2.313-6.912,0.428"/>
<path id="path6_fill" fill="#4F4F4F" d="M170.006,7.611v14.678c-0.91,0.763-1.889,0.555-3.076,0.254V7.68
	C167.725,6.87,168.785,7.183,170.006,7.611z"/>
<path id="path7_fill" fill="#4F4F4F" d="M170.374,2.036v2.429c-0.979,0.914-2.108,0.59-3.237,0.451
	c-0.265-0.432-0.412-0.927-0.426-1.435s0.105-1.01,0.346-1.457c1.092-0.361,2.271-0.361,3.364,0"/>
<path fill="none" d="M13.111,14.84c0.026-0.495-0.046-0.991-0.214-1.457s-0.427-0.895-0.762-1.259
	c-0.335-0.364-0.739-0.658-1.189-0.863s-0.936-0.317-1.43-0.331c-0.986,0.089-1.899,0.56-2.544,1.314
	C6.327,12.998,6,13.975,6.061,14.967c-0.025,0.497,0.051,0.995,0.223,1.462c0.172,0.467,0.437,0.894,0.778,1.255
	c0.341,0.361,0.752,0.649,1.208,0.846c0.456,0.197,0.946,0.299,1.442,0.3c0.494-0.013,0.98-0.129,1.427-0.34
	c0.447-0.211,0.846-0.514,1.171-0.888c0.325-0.374,0.568-0.812,0.716-1.285c0.147-0.474,0.196-0.973,0.142-1.466L13.111,14.84z"/>
<path fill="#E52B2B" d="M65.341,9.016c-0.354-0.739-0.864-1.391-1.496-1.91c-0.631-0.519-1.368-0.893-2.159-1.096
	c-0.79-0.203-1.616-0.229-2.418-0.077C57.3,6.194,55.49,7.154,54.165,8.64c-0.419-0.674-0.972-1.253-1.624-1.703
	c-0.652-0.45-1.389-0.76-2.166-0.911c-2.534-0.509-4.446,0.671-6.301,2.313L43.89,6.385H37.9v5.864
	c-0.677-1.774-1.853-3.312-3.385-4.427c-1.532-1.115-3.354-1.759-5.243-1.853c-4.447-0.347-7.81,1.55-10.114,6.049V0.393h-6.082V7.9
	c0.085,0.515-0.346,0.109-0.597-0.126c-0.053-0.05-0.098-0.092-0.128-0.117c-0.802-0.703-1.751-1.215-2.777-1.498
	C8.548,5.875,7.471,5.827,6.425,6.018C5.378,6.209,4.387,6.634,3.527,7.262C2.666,7.891,1.957,8.705,1.453,9.646
	c-0.929,1.571-1.43,3.361-1.452,5.188c-0.022,1.827,0.435,3.628,1.326,5.222c0.713,1.368,1.84,2.473,3.219,3.156
	c1.378,0.684,2.937,0.911,4.453,0.649c1.526-0.378,2.916-1.179,4.008-2.313c0.092,0.752,0.092,1.307,0.092,1.851h6.174v-5.286
	c2.165,4.199,5.391,5.98,9.653,5.783c4.262-0.197,7.107-2.452,9.043-6.211v5.668h6.094v-1.157c0-0.541-0.003-1.083-0.007-1.625
	l-0.009-1.072c-0.015-1.8-0.03-3.603,0.016-5.4c0.035-1.828,1.209-2.903,2.558-2.845c1.348,0.058,2.211,1.099,2.304,2.88v1.804
	v7.472h6.128v-1.666v-6.662c0.011-2.672,0.864-3.828,2.477-3.828s2.304,1.133,2.304,3.898v2.521v5.737h6.059v-10.41v-1.619
	C65.883,10.562,65.695,9.754,65.341,9.016z M13.027,16.317c-0.148,0.474-0.392,0.911-0.716,1.285
	c-0.325,0.374-0.724,0.676-1.171,0.888c-0.447,0.211-0.933,0.327-1.427,0.34c-0.496-0.001-0.986-0.103-1.442-0.3
	c-0.456-0.197-0.867-0.485-1.208-0.846c-0.341-0.361-0.606-0.788-0.778-1.255c-0.172-0.467-0.248-0.964-0.223-1.462
	C6,13.975,6.327,12.998,6.972,12.244c0.646-0.754,1.559-1.225,2.544-1.314c0.494,0.013,0.98,0.126,1.43,0.331
	s0.854,0.498,1.189,0.863c0.335,0.364,0.594,0.792,0.762,1.259s0.24,0.962,0.214,1.457l0.058,0.012
	C13.222,15.344,13.174,15.844,13.027,16.317z M31.804,16.5c-0.184,0.457-0.458,0.873-0.805,1.222
	c-0.347,0.349-0.76,0.625-1.215,0.812c-0.455,0.186-0.943,0.279-1.434,0.273c-0.505-0.015-1.002-0.131-1.462-0.342
	s-0.873-0.513-1.214-0.887c-0.341-0.374-0.605-0.814-0.774-1.292c-0.169-0.478-0.241-0.986-0.212-1.493
	c-0.008-0.493,0.083-0.983,0.266-1.441s0.455-0.875,0.8-1.226c0.346-0.351,0.757-0.629,1.211-0.819
	c0.454-0.19,0.94-0.286,1.432-0.285c0.506,0.021,1.002,0.142,1.461,0.356c0.459,0.214,0.872,0.518,1.213,0.893
	c0.342,0.375,0.606,0.815,0.778,1.293c0.171,0.478,0.247,0.986,0.222,1.494C32.079,15.553,31.988,16.042,31.804,16.5z"/>
<path fill="#E52B2B" d="M117.269,9.362c-1.25-1.554-2.977-2.65-4.912-3.116c-5-1.226-9.25,0.775-11.969,5.957
	c-0.322-2.822-1.164-5.17-4.078-6.026c-1.235-0.356-2.546-0.343-3.773,0.037c-1.228,0.38-2.318,1.111-3.139,2.103
	c-0.216-0.334-0.206-0.679-0.195-1.006c0.011-0.352,0.021-0.684-0.254-0.96h-5.76v17.026h5.76c0.235-0.451,0.308-0.97,0.207-1.469
	v-7.923c-0.031-0.346,0.008-0.696,0.116-1.026c0.108-0.33,0.282-0.635,0.512-0.895c0.23-0.26,0.511-0.47,0.825-0.617
	s0.654-0.228,1-0.237c1.394-0.035,2.408,0.96,2.546,2.683v2.163v7.264h6.082v-5.783h0.012c2.788,5.274,7.096,7.356,11.911,6.119
	c2.004-0.443,3.799-1.556,5.09-3.158c1.292-1.601,2.003-3.596,2.018-5.656C119.222,12.842,118.519,10.917,117.269,9.362z
	 M113.125,16.326c-0.155,0.471-0.405,0.905-0.735,1.274c-0.33,0.369-0.733,0.666-1.183,0.872c-0.45,0.206-0.936,0.315-1.431,0.323
	c-0.509,0.015-1.016-0.076-1.488-0.268c-0.472-0.192-0.899-0.48-1.255-0.847c-0.356-0.367-0.631-0.803-0.809-1.282
	c-0.178-0.479-0.255-0.99-0.226-1.501c-0.033-0.496,0.035-0.994,0.202-1.462c0.166-0.468,0.426-0.897,0.764-1.26
	c0.338-0.363,0.747-0.653,1.201-0.851c0.454-0.198,0.944-0.301,1.439-0.301c0.495,0.008,0.983,0.113,1.436,0.311
	c0.454,0.198,0.864,0.484,1.206,0.843c0.342,0.358,0.611,0.781,0.79,1.244c0.178,0.46,0.264,0.951,0.253,1.444
	C113.336,15.358,113.28,15.856,113.125,16.326z"/>
<path fill="#4F4F4F" d="M225.636,19.4c-2.416,0.44-4.854,0.885-6.144-2.906h10.909c0.046-5.39-1.901-8.432-5.633-9.161
	c-1.731-0.29-3.509,0.039-5.023,0.932c-1.514,0.892-2.667,2.29-3.259,3.949c-0.663,1.701-0.712,3.582-0.141,5.316
	c0.572,1.734,1.73,3.213,3.274,4.18c3.502,2.012,7.246,1.284,10.068-2.186h0.012C228.521,18.874,227.083,19.136,225.636,19.4z
	 M223.41,10.213c2.361,0.058,3.398,1.446,3.64,3.852h-7.511C220.046,11.659,221.048,10.155,223.41,10.213z"/>
<path fill="#4F4F4F" d="M202.568,16.586c-0.058-5.575-2.004-8.559-5.759-9.253c-1.74-0.278-3.521,0.07-5.03,0.982
	c-1.509,0.912-2.648,2.33-3.218,4.003c-0.656,1.705-0.693,3.587-0.105,5.317c0.587,1.73,1.763,3.197,3.319,4.144
	c3.548,1.99,7.315,1.226,9.987-2.313c-1.171-0.55-2.573-0.283-3.978-0.016c-2.436,0.464-4.879,0.929-6.136-2.864h10.874H202.568z
	 M191.602,14.111c0.599-2.533,1.647-3.99,4.009-3.898s3.202,1.677,3.709,3.898H191.602z"/>
</svg>
